<svg width="226" height="169" viewBox="0 0 226 169" fill="none" xmlns="http://www.w3.org/2000/svg">
<path d="M187.532 0H43.2771C36.638 0 31.2559 5.38211 31.2559 12.0213V156.277C31.2559 162.916 36.638 168.298 43.2771 168.298H187.532C194.172 168.298 199.554 162.916 199.554 156.277V12.0213C199.554 5.38211 194.172 0 187.532 0Z" fill="#102134"/>
<path d="M168.298 12.0214H6.01064C2.69105 12.0214 0 14.7124 0 18.032V48.0852C0 51.4048 2.69105 54.0958 6.01064 54.0958H168.298C171.617 54.0958 174.309 51.4048 174.309 48.0852V18.032C174.309 14.7124 171.617 12.0214 168.298 12.0214Z" fill="#1A2F45"/>
<path d="M82.9457 21.6382H51.6904C49.6986 21.6382 48.084 23.2528 48.084 25.2446C48.084 27.2363 49.6986 28.8509 51.6904 28.8509H82.9457C84.9374 28.8509 86.5521 27.2363 86.5521 25.2446C86.5521 23.2528 84.9374 21.6382 82.9457 21.6382Z" fill="#D0D5DD"/>
<path d="M104.584 37.2655H51.6904C49.6986 37.2655 48.084 38.8801 48.084 40.8719C48.084 42.8636 49.6986 44.4783 51.6904 44.4783H104.584C106.576 44.4783 108.19 42.8636 108.19 40.8719C108.19 38.8801 106.576 37.2655 104.584 37.2655Z" fill="#EAECF0"/>
<path d="M32.4585 15.6288H9.61806C6.29848 15.6288 3.60742 18.3198 3.60742 21.6394V44.4798C3.60742 47.7994 6.29848 50.4905 9.61806 50.4905H32.4585C35.7781 50.4905 38.4691 47.7994 38.4691 44.4798V21.6394C38.4691 18.3198 35.7781 15.6288 32.4585 15.6288Z" fill="#3294F8"/>
<path d="M18.2985 37.003H20.7028L20.7292 36.0773C20.7292 34.8608 21.4962 34.5434 22.5805 34.1996C23.6682 33.8902 24.6256 33.235 25.3079 32.3332C25.9902 31.4314 26.3604 30.332 26.3624 29.2011C26.3862 28.5107 26.2665 27.8228 26.0107 27.1811C25.7549 26.5393 25.3687 25.9577 24.8764 25.4729C24.3842 24.9881 23.7967 24.6108 23.1511 24.3649C22.5056 24.1189 21.8159 24.0097 21.1259 24.044C20.3968 24.0281 19.6719 24.1605 18.9954 24.4332C18.3189 24.7058 17.7049 25.113 17.1905 25.6301C16.6761 26.1472 16.2721 26.7634 16.003 27.4413C15.7339 28.1192 15.6053 28.8447 15.625 29.5738H18.111C18.1016 29.1712 18.1726 28.7708 18.3199 28.3961C18.4672 28.0213 18.6878 27.6797 18.9688 27.3913C19.2498 27.1029 19.5856 26.8735 19.9564 26.7165C20.3272 26.5595 20.7257 26.4781 21.1284 26.4771C21.4915 26.4561 21.8549 26.5134 22.1939 26.6453C22.5329 26.7772 22.8395 26.9806 23.0929 27.2415C23.3463 27.5024 23.5406 27.8149 23.6625 28.1576C23.7844 28.5003 23.8312 28.8652 23.7995 29.2276C23.7835 29.8141 23.5795 30.38 23.2177 30.8418C22.8558 31.3037 22.3552 31.6371 21.7895 31.7929L20.9168 32.1391C20.0623 32.345 19.3163 32.8643 18.8265 33.5941C18.3367 34.3239 18.1389 35.211 18.2721 36.0797L18.2985 37.003ZM19.4887 42.7179C19.7241 42.7262 19.9588 42.6873 20.1789 42.6034C20.399 42.5195 20.6001 42.3923 20.7702 42.2293C20.9404 42.0664 21.0761 41.871 21.1694 41.6547C21.2627 41.4384 21.3117 41.2055 21.3135 40.97C21.3114 40.7346 21.2622 40.502 21.1687 40.286C21.0753 40.07 20.9395 39.8749 20.7694 39.7122C20.5993 39.5495 20.3983 39.4225 20.1784 39.3387C19.9584 39.255 19.7239 39.2161 19.4887 39.2245C19.2534 39.2161 19.0189 39.255 18.7989 39.3387C18.579 39.4225 18.378 39.5495 18.2079 39.7122C18.0378 39.8749 17.902 40.07 17.8086 40.286C17.7151 40.502 17.6659 40.7346 17.6638 40.97C17.6656 41.2055 17.7146 41.4384 17.8079 41.6547C17.9012 41.871 18.0369 42.0664 18.2071 42.2293C18.3772 42.3923 18.5783 42.5195 18.7984 42.6034C19.0185 42.6873 19.2532 42.7262 19.4887 42.7179V42.7179Z" fill="white"/>
<path d="M57.702 63.7129H219.989C221.583 63.7129 223.112 64.3462 224.239 65.4734C225.367 66.6006 226 68.1294 226 69.7235V99.7767C226 101.371 225.367 102.9 224.239 104.027C223.112 105.154 221.583 105.787 219.989 105.787H57.702C56.1079 105.787 54.5791 105.154 53.4519 104.027C52.3247 102.9 51.6914 101.371 51.6914 99.7767V69.7235C51.6914 68.1294 52.3247 66.6006 53.4519 65.4734C54.5791 64.3462 56.1079 63.7129 57.702 63.7129V63.7129Z" fill="#1A2F45"/>
<path d="M134.637 73.3298H103.382C101.39 73.3298 99.7754 74.9445 99.7754 76.9362C99.7754 78.928 101.39 80.5426 103.382 80.5426H134.637C136.629 80.5426 138.243 78.928 138.243 76.9362C138.243 74.9445 136.629 73.3298 134.637 73.3298Z" fill="#D0D5DD"/>
<path d="M156.275 88.9572H103.382C101.39 88.9572 99.7754 90.5718 99.7754 92.5635C99.7754 94.5553 101.39 96.1699 103.382 96.1699H156.275C158.267 96.1699 159.882 94.5553 159.882 92.5635C159.882 90.5718 158.267 88.9572 156.275 88.9572Z" fill="#EAECF0"/>
<path d="M84.1479 67.3202H61.3075C57.9879 67.3202 55.2969 70.0112 55.2969 73.3308V96.1713C55.2969 99.4908 57.9879 102.182 61.3075 102.182H84.1479C87.4675 102.182 90.1586 99.4908 90.1586 96.1713V73.3308C90.1586 70.0112 87.4675 67.3202 84.1479 67.3202Z" fill="#3294F8"/>
<path d="M69.988 88.6944H72.3923L72.4187 87.7687C72.4187 86.5522 73.1857 86.2348 74.27 85.891C75.3577 85.5816 76.3151 84.9265 76.9974 84.0246C77.6797 83.1228 78.0499 82.0234 78.0519 80.8926C78.0757 80.2021 77.9559 79.5142 77.7001 78.8725C77.4443 78.2307 77.0581 77.6491 76.5659 77.1643C76.0737 76.6795 75.4862 76.3022 74.8406 76.0563C74.195 75.8103 73.5054 75.7011 72.8154 75.7354C72.0862 75.7195 71.3614 75.8519 70.6849 76.1246C70.0084 76.3972 69.3943 76.8044 68.8799 77.3215C68.3655 77.8386 67.9616 78.4548 67.6925 79.1327C67.4234 79.8106 67.2948 80.5361 67.3145 81.2652H69.8005C69.791 80.8626 69.862 80.4622 70.0093 80.0875C70.1566 79.7127 70.3773 79.3711 70.6583 79.0827C70.9393 78.7943 71.2751 78.5649 71.6459 78.4079C72.0167 78.2509 72.4151 78.1695 72.8178 78.1685C73.1809 78.1475 73.5444 78.2048 73.8833 78.3367C74.2223 78.4686 74.529 78.672 74.7824 78.9329C75.0358 79.1939 75.2301 79.5063 75.352 79.849C75.4739 80.1917 75.5206 80.5566 75.4889 80.919C75.4729 81.5055 75.269 82.0714 74.9071 82.5332C74.5452 82.9951 74.0446 83.3285 73.479 83.4843L72.6062 83.8306C71.7518 84.0364 71.0058 84.5557 70.516 85.2855C70.0262 86.0153 69.8283 86.9024 69.9616 87.7711L69.988 88.6944ZM71.1781 94.4093C71.4135 94.4176 71.6482 94.3787 71.8684 94.2948C72.0885 94.2109 72.2896 94.0837 72.4597 93.9208C72.6298 93.7578 72.7655 93.5624 72.8589 93.3461C72.9522 93.1298 73.0012 92.897 73.0029 92.6614C73.0008 92.426 72.9516 92.1935 72.8582 91.9774C72.7647 91.7614 72.6289 91.5663 72.4588 91.4036C72.2887 91.2409 72.0878 91.1139 71.8678 91.0301C71.6479 90.9464 71.4133 90.9075 71.1781 90.9159C70.9429 90.9075 70.7084 90.9464 70.4884 91.0301C70.2684 91.1139 70.0675 91.2409 69.8974 91.4036C69.7273 91.5663 69.5915 91.7614 69.4981 91.9774C69.4046 92.1935 69.3554 92.426 69.3533 92.6614C69.3551 92.897 69.404 93.1298 69.4974 93.3461C69.5907 93.5624 69.7264 93.7578 69.8965 93.9208C70.0666 94.0837 70.2677 94.2109 70.4878 94.2948C70.708 94.3787 70.9427 94.4176 71.1781 94.4093V94.4093Z" fill="white"/>
<path d="M6.01064 115.404H168.298C169.892 115.404 171.421 116.038 172.548 117.165C173.675 118.292 174.308 119.821 174.308 121.415V151.468C174.308 153.062 173.675 154.591 172.548 155.718C171.421 156.846 169.892 157.479 168.298 157.479H6.01064C4.41652 157.479 2.88769 156.846 1.76048 155.718C0.633262 154.591 0 153.062 0 151.468L0 121.415C0 119.821 0.633262 118.292 1.76048 117.165C2.88769 116.038 4.41652 115.404 6.01064 115.404V115.404Z" fill="#1A2F45"/>
<path d="M82.9457 125.021H51.6904C49.6986 125.021 48.084 126.636 48.084 128.628C48.084 130.619 49.6986 132.234 51.6904 132.234H82.9457C84.9374 132.234 86.5521 130.619 86.5521 128.628C86.5521 126.636 84.9374 125.021 82.9457 125.021Z" fill="#D0D5DD"/>
<path d="M104.584 140.649H51.6904C49.6986 140.649 48.084 142.263 48.084 144.255C48.084 146.247 49.6986 147.861 51.6904 147.861H104.584C106.576 147.861 108.19 146.247 108.19 144.255C108.19 142.263 106.576 140.649 104.584 140.649Z" fill="#EAECF0"/>
<path d="M32.4585 119.012H9.61806C6.29848 119.012 3.60742 121.703 3.60742 125.022V147.863C3.60742 151.182 6.29848 153.873 9.61806 153.873H32.4585C35.7781 153.873 38.4691 151.182 38.4691 147.863V125.022C38.4691 121.703 35.7781 119.012 32.4585 119.012Z" fill="#3294F8"/>
<path d="M18.2985 140.386H20.7028L20.7292 139.46C20.7292 138.244 21.4962 137.926 22.5805 137.583C23.6682 137.273 24.6256 136.618 25.3079 135.716C25.9902 134.814 26.3604 133.715 26.3624 132.584C26.3862 131.894 26.2665 131.206 26.0107 130.564C25.7549 129.922 25.3687 129.341 24.8764 128.856C24.3842 128.371 23.7967 127.994 23.1511 127.748C22.5056 127.502 21.8159 127.393 21.1259 127.427C20.3968 127.411 19.6719 127.543 18.9954 127.816C18.3189 128.089 17.7049 128.496 17.1905 129.013C16.6761 129.53 16.2721 130.146 16.003 130.824C15.7339 131.502 15.6053 132.228 15.625 132.957H18.111C18.1016 132.554 18.1726 132.154 18.3199 131.779C18.4672 131.404 18.6878 131.063 18.9688 130.774C19.2498 130.486 19.5856 130.256 19.9564 130.099C20.3272 129.942 20.7257 129.861 21.1284 129.86C21.4915 129.839 21.8549 129.896 22.1939 130.028C22.5329 130.16 22.8395 130.363 23.0929 130.624C23.3463 130.885 23.5406 131.198 23.6625 131.541C23.7844 131.883 23.8312 132.248 23.7995 132.611C23.7835 133.197 23.5795 133.763 23.2177 134.225C22.8558 134.687 22.3552 135.02 21.7895 135.176L20.9168 135.522C20.0623 135.728 19.3163 136.247 18.8265 136.977C18.3367 137.707 18.1389 138.594 18.2721 139.463L18.2985 140.386ZM19.4887 146.101C19.7241 146.109 19.9588 146.07 20.1789 145.986C20.399 145.902 20.6001 145.775 20.7702 145.612C20.9404 145.449 21.0761 145.254 21.1694 145.038C21.2627 144.821 21.3117 144.588 21.3135 144.353C21.3114 144.118 21.2622 143.885 21.1687 143.669C21.0753 143.453 20.9395 143.258 20.7694 143.095C20.5993 142.932 20.3983 142.805 20.1784 142.722C19.9584 142.638 19.7239 142.599 19.4887 142.607C19.2534 142.599 19.0189 142.638 18.7989 142.722C18.579 142.805 18.378 142.932 18.2079 143.095C18.0378 143.258 17.902 143.453 17.8086 143.669C17.7151 143.885 17.6659 144.118 17.6638 144.353C17.6656 144.588 17.7146 144.821 17.8079 145.038C17.9012 145.254 18.0369 145.449 18.2071 145.612C18.3772 145.775 18.5783 145.902 18.7984 145.986C19.0185 146.07 19.2532 146.109 19.4887 146.101V146.101Z" fill="white"/>
</svg>
